<svg width="222" height="33" viewBox="0 0 222 33" fill="none" xmlns="http://www.w3.org/2000/svg">
<path d="M78.7235 29.1426C79.4211 28.6537 80.1388 28.1962 80.8547 27.7241C82.6435 26.5533 84.4304 25.3902 86.2296 24.2191C86.2296 24.2191 86.2296 24.2191 86.2297 24.219C97.3169 17.0092 108.397 9.79501 119.452 2.53436C120.167 2.06495 120.878 1.59786 121.593 1.12764C120.878 1.59786 120.167 2.06495 119.452 2.53436C108.397 9.79501 97.3169 17.0092 86.2297 24.219C86.2296 24.2191 86.2296 24.2191 86.2296 24.2191C84.4304 25.3902 82.6435 26.5533 80.8547 27.7241C80.1388 28.1962 79.4211 28.6537 78.7235 29.1426Z" fill="white"/>
<path d="M96.877 4.07782C97.3158 4.23451 97.7396 4.43348 98.1687 4.61854C98.1689 4.61862 98.169 4.6187 98.1692 4.61877C98.4272 4.73814 98.6968 4.831 98.9767 4.88729C101.793 5.24015 104.626 4.78629 107.449 4.54513C107.452 4.54484 107.454 4.54454 107.456 4.54425C118.069 3.2432 128.681 1.89229 139.308 0.703324C140.056 0.619312 140.801 0.536187 141.55 0.453377C140.801 0.536187 140.056 0.619312 139.308 0.703324C128.681 1.89229 118.069 3.2432 107.456 4.54425C107.454 4.54454 107.452 4.54484 107.449 4.54513C104.626 4.78629 101.793 5.24015 98.9767 4.88729C98.6968 4.831 98.4272 4.73814 98.1692 4.61877C98.169 4.6187 98.1689 4.61862 98.1687 4.61854C97.7396 4.43348 97.3158 4.23451 96.877 4.07782Z" fill="white"/>
<path d="M11.6842 32C11.0442 32 10.5242 31.8133 10.1242 31.44C9.75089 31.04 9.56422 30.5467 9.56422 29.96V6H13.8442V29.96C13.8442 30.5467 13.6309 31.04 13.2042 31.44C12.8042 31.8133 12.2976 32 11.6842 32ZM2.60422 7.84C2.04422 7.84 1.56422 7.66667 1.16422 7.32C0.764219 6.94666 0.564219 6.46666 0.564219 5.88C0.564219 5.32 0.764219 4.86667 1.16422 4.52C1.56422 4.17333 2.04422 4 2.60422 4H20.8042C21.3642 4 21.8309 4.18666 22.2042 4.56C22.6042 4.90667 22.8042 5.36 22.8042 5.92C22.8042 6.50667 22.6042 6.97333 22.2042 7.32C21.8309 7.66667 21.3642 7.84 20.8042 7.84H2.60422ZM42.2452 21.48C42.2452 23.6133 41.7785 25.5067 40.8452 27.16C39.9118 28.7867 38.6452 30.0667 37.0452 31C35.4452 31.9333 33.6452 32.4 31.6452 32.4C29.6452 32.4 27.8452 31.9333 26.2452 31C24.6452 30.0667 23.3652 28.7867 22.4052 27.16C21.4718 25.5067 21.0052 23.6133 21.0052 21.48C21.0052 19.32 21.4718 17.4267 22.4052 15.8C23.3652 14.1467 24.6452 12.8533 26.2452 11.92C27.8452 10.96 29.6452 10.48 31.6452 10.48C33.6452 10.48 35.4452 10.96 37.0452 11.92C38.6452 12.8533 39.9118 14.1467 40.8452 15.8C41.7785 17.4267 42.2452 19.32 42.2452 21.48ZM38.2452 21.48C38.2452 20.0133 37.9518 18.7467 37.3652 17.68C36.7785 16.5867 35.9785 15.7333 34.9652 15.12C33.9785 14.48 32.8718 14.16 31.6452 14.16C30.4185 14.16 29.2985 14.48 28.2852 15.12C27.2718 15.7333 26.4718 16.5867 25.8852 17.68C25.2985 18.7467 25.0052 20.0133 25.0052 21.48C25.0052 22.8933 25.2985 24.1467 25.8852 25.24C26.4718 26.3333 27.2718 27.1867 28.2852 27.8C29.2985 28.4133 30.4185 28.72 31.6452 28.72C32.8718 28.72 33.9785 28.4133 34.9652 27.8C35.9785 27.1867 36.7785 26.3333 37.3652 25.24C37.9518 24.1467 38.2452 22.8933 38.2452 21.48ZM45.5327 28.72C45.2927 28.3467 45.186 27.92 45.2127 27.44C45.2393 26.9333 45.5193 26.5067 46.0527 26.16C46.426 25.92 46.8127 25.8267 47.2127 25.88C47.6393 25.9067 48.0393 26.1067 48.4127 26.48C49.1593 27.3067 49.986 27.96 50.8927 28.44C51.826 28.92 52.946 29.16 54.2527 29.16C54.786 29.1333 55.3327 29.0533 55.8927 28.92C56.4527 28.76 56.9327 28.4933 57.3327 28.12C57.7327 27.72 57.9327 27.1467 57.9327 26.4C57.9327 25.7333 57.7193 25.2 57.2927 24.8C56.866 24.4 56.306 24.08 55.6127 23.84C54.9193 23.5733 54.1727 23.3333 53.3727 23.12C52.5193 22.88 51.6527 22.6133 50.7727 22.32C49.9193 22.0267 49.146 21.6533 48.4527 21.2C47.7593 20.72 47.186 20.1067 46.7327 19.36C46.306 18.6133 46.0927 17.6933 46.0927 16.6C46.0927 15.3467 46.4393 14.2667 47.1327 13.36C47.8527 12.4533 48.7727 11.7467 49.8927 11.24C51.0393 10.7333 52.2793 10.48 53.6127 10.48C54.386 10.48 55.1993 10.5867 56.0527 10.8C56.906 10.9867 57.7327 11.2933 58.5327 11.72C59.3327 12.1467 60.026 12.7067 60.6127 13.4C60.8793 13.7467 61.026 14.16 61.0527 14.64C61.106 15.12 60.8927 15.5467 60.4127 15.92C60.0927 16.1867 59.706 16.3067 59.2527 16.28C58.7993 16.2533 58.426 16.1067 58.1327 15.84C57.626 15.2 56.9727 14.7067 56.1727 14.36C55.3727 13.9867 54.466 13.8 53.4527 13.8C52.946 13.8 52.4127 13.88 51.8527 14.04C51.3193 14.1733 50.866 14.4267 50.4927 14.8C50.1193 15.1733 49.9327 15.72 49.9327 16.44C49.9327 17.1067 50.146 17.64 50.5727 18.04C51.026 18.44 51.6127 18.7733 52.3327 19.04C53.0527 19.3067 53.8393 19.5467 54.6927 19.76C55.5193 19.9733 56.3327 20.2267 57.1327 20.52C57.9593 20.8133 58.6927 21.2 59.3327 21.68C59.9993 22.1333 60.5327 22.7333 60.9327 23.48C61.3593 24.2 61.5727 25.12 61.5727 26.24C61.5727 27.5467 61.186 28.6667 60.4127 29.6C59.666 30.5067 58.706 31.2 57.5327 31.68C56.386 32.16 55.1727 32.4 53.8927 32.4C52.3727 32.4 50.8527 32.1333 49.3327 31.6C47.8393 31.04 46.5727 30.08 45.5327 28.72ZM76.4742 10.6C78.3142 10.6 79.7409 11 80.7542 11.8C81.7676 12.5733 82.4742 13.6267 82.8742 14.96C83.3009 16.2933 83.5142 17.76 83.5142 19.36V29.96C83.5142 30.5467 83.3142 31.04 82.9142 31.44C82.5409 31.8133 82.0742 32 81.5142 32C80.9276 32 80.4476 31.8133 80.0742 31.44C79.7009 31.04 79.5142 30.5467 79.5142 29.96V19.36C79.5142 18.4267 79.3809 17.5733 79.1142 16.8C78.8742 16.0267 78.4342 15.4133 77.7942 14.96C77.1809 14.5067 76.3142 14.28 75.1942 14.28C74.1542 14.28 73.2209 14.5067 72.3942 14.96C71.5942 15.4133 70.9676 16.0267 70.5142 16.8C70.0876 17.5733 69.8742 18.4267 69.8742 19.36V29.96C69.8742 30.5467 69.6742 31.04 69.2742 31.44C68.9009 31.8133 68.4342 32 67.8742 32C67.2876 32 66.8076 31.8133 66.4342 31.44C66.0609 31.04 65.8742 30.5467 65.8742 29.96V4.44C65.8742 3.85333 66.0609 3.37333 66.4342 3C66.8076 2.6 67.2876 2.4 67.8742 2.4C68.4342 2.4 68.9009 2.6 69.2742 3C69.6742 3.37333 69.8742 3.85333 69.8742 4.44V15.36L69.1542 15.76C69.3409 15.1733 69.6476 14.5733 70.0742 13.96C70.5276 13.3467 71.0742 12.7867 71.7142 12.28C72.3809 11.7733 73.1142 11.3733 73.9142 11.08C74.7142 10.76 75.5676 10.6 76.4742 10.6ZM91.5573 4H105.397C105.957 4 106.424 4.18666 106.797 4.56C107.197 4.93333 107.397 5.4 107.397 5.96C107.397 6.52 107.197 6.97333 106.797 7.32C106.424 7.66667 105.957 7.84 105.397 7.84H93.3173L93.7173 7.16V16.12L93.3573 15.72H103.597C104.157 15.72 104.624 15.9067 104.997 16.28C105.397 16.6533 105.597 17.1333 105.597 17.72C105.597 18.28 105.397 18.7333 104.997 19.08C104.624 19.4267 104.157 19.6 103.597 19.6H93.4373L93.7173 19.24V28.48L93.4373 28.16H105.397C105.957 28.16 106.424 28.36 106.797 28.76C107.197 29.1333 107.397 29.5733 107.397 30.08C107.397 30.64 107.197 31.1067 106.797 31.48C106.424 31.8267 105.957 32 105.397 32H91.5573C90.9973 32 90.5173 31.8133 90.1173 31.44C89.7173 31.04 89.5173 30.5467 89.5173 29.96V6.04C89.5173 5.45333 89.7173 4.97333 90.1173 4.6C90.5173 4.2 90.9973 4 91.5573 4ZM131.129 3.92C131.662 3.92 132.102 4.12 132.449 4.52C132.822 4.89333 133.009 5.30667 133.009 5.76C133.009 6.18667 132.862 6.6 132.569 7L124.169 18.24L121.889 15.08L129.529 4.88C129.982 4.24 130.516 3.92 131.129 3.92ZM112.889 3.88C113.529 3.88 114.076 4.16 114.529 4.72L132.569 28.96C132.862 29.3067 133.009 29.7067 133.009 30.16C133.009 30.8 132.782 31.2933 132.329 31.64C131.876 31.9867 131.422 32.16 130.969 32.16C130.329 32.16 129.796 31.88 129.369 31.32L111.289 7.12C110.996 6.74667 110.849 6.34667 110.849 5.92C110.849 5.33333 111.062 4.85333 111.489 4.48C111.916 4.08 112.382 3.88 112.889 3.88ZM112.609 32.16C112.102 32.16 111.676 31.9867 111.329 31.64C110.982 31.2667 110.809 30.8533 110.809 30.4C110.809 29.9467 110.969 29.4933 111.289 29.04L119.769 17.56L121.969 20.8L114.249 31.24C113.822 31.8533 113.276 32.16 112.609 32.16Z" fill="white"/>
<path d="M11.6842 32C11.0442 32 10.5242 31.8133 10.1242 31.44C9.75089 31.04 9.56422 30.5467 9.56422 29.96V6H13.8442V29.96C13.8442 30.5467 13.6309 31.04 13.2042 31.44C12.8042 31.8133 12.2976 32 11.6842 32ZM2.60422 7.84C2.04422 7.84 1.56422 7.66667 1.16422 7.32C0.764219 6.94666 0.564219 6.46666 0.564219 5.88C0.564219 5.32 0.764219 4.86667 1.16422 4.52C1.56422 4.17333 2.04422 4 2.60422 4H20.8042C21.3642 4 21.8309 4.18666 22.2042 4.56C22.6042 4.90667 22.8042 5.36 22.8042 5.92C22.8042 6.50667 22.6042 6.97333 22.2042 7.32C21.8309 7.66667 21.3642 7.84 20.8042 7.84H2.60422ZM42.2452 21.48C42.2452 23.6133 41.7785 25.5067 40.8452 27.16C39.9118 28.7867 38.6452 30.0667 37.0452 31C35.4452 31.9333 33.6452 32.4 31.6452 32.4C29.6452 32.4 27.8452 31.9333 26.2452 31C24.6452 30.0667 23.3652 28.7867 22.4052 27.16C21.4718 25.5067 21.0052 23.6133 21.0052 21.48C21.0052 19.32 21.4718 17.4267 22.4052 15.8C23.3652 14.1467 24.6452 12.8533 26.2452 11.92C27.8452 10.96 29.6452 10.48 31.6452 10.48C33.6452 10.48 35.4452 10.96 37.0452 11.92C38.6452 12.8533 39.9118 14.1467 40.8452 15.8C41.7785 17.4267 42.2452 19.32 42.2452 21.48ZM38.2452 21.48C38.2452 20.0133 37.9518 18.7467 37.3652 17.68C36.7785 16.5867 35.9785 15.7333 34.9652 15.12C33.9785 14.48 32.8718 14.16 31.6452 14.16C30.4185 14.16 29.2985 14.48 28.2852 15.12C27.2718 15.7333 26.4718 16.5867 25.8852 17.68C25.2985 18.7467 25.0052 20.0133 25.0052 21.48C25.0052 22.8933 25.2985 24.1467 25.8852 25.24C26.4718 26.3333 27.2718 27.1867 28.2852 27.8C29.2985 28.4133 30.4185 28.72 31.6452 28.72C32.8718 28.72 33.9785 28.4133 34.9652 27.8C35.9785 27.1867 36.7785 26.3333 37.3652 25.24C37.9518 24.1467 38.2452 22.8933 38.2452 21.48ZM45.5327 28.72C45.2927 28.3467 45.186 27.92 45.2127 27.44C45.2393 26.9333 45.5193 26.5067 46.0527 26.16C46.426 25.92 46.8127 25.8267 47.2127 25.88C47.6393 25.9067 48.0393 26.1067 48.4127 26.48C49.1593 27.3067 49.986 27.96 50.8927 28.44C51.826 28.92 52.946 29.16 54.2527 29.16C54.786 29.1333 55.3327 29.0533 55.8927 28.92C56.4527 28.76 56.9327 28.4933 57.3327 28.12C57.7327 27.72 57.9327 27.1467 57.9327 26.4C57.9327 25.7333 57.7193 25.2 57.2927 24.8C56.866 24.4 56.306 24.08 55.6127 23.84C54.9193 23.5733 54.1727 23.3333 53.3727 23.12C52.5193 22.88 51.6527 22.6133 50.7727 22.32C49.9193 22.0267 49.146 21.6533 48.4527 21.2C47.7593 20.72 47.186 20.1067 46.7327 19.36C46.306 18.6133 46.0927 17.6933 46.0927 16.6C46.0927 15.3467 46.4393 14.2667 47.1327 13.36C47.8527 12.4533 48.7727 11.7467 49.8927 11.24C51.0393 10.7333 52.2793 10.48 53.6127 10.48C54.386 10.48 55.1993 10.5867 56.0527 10.8C56.906 10.9867 57.7327 11.2933 58.5327 11.72C59.3327 12.1467 60.026 12.7067 60.6127 13.4C60.8793 13.7467 61.026 14.16 61.0527 14.64C61.106 15.12 60.8927 15.5467 60.4127 15.92C60.0927 16.1867 59.706 16.3067 59.2527 16.28C58.7993 16.2533 58.426 16.1067 58.1327 15.84C57.626 15.2 56.9727 14.7067 56.1727 14.36C55.3727 13.9867 54.466 13.8 53.4527 13.8C52.946 13.8 52.4127 13.88 51.8527 14.04C51.3193 14.1733 50.866 14.4267 50.4927 14.8C50.1193 15.1733 49.9327 15.72 49.9327 16.44C49.9327 17.1067 50.146 17.64 50.5727 18.04C51.026 18.44 51.6127 18.7733 52.3327 19.04C53.0527 19.3067 53.8393 19.5467 54.6927 19.76C55.5193 19.9733 56.3327 20.2267 57.1327 20.52C57.9593 20.8133 58.6927 21.2 59.3327 21.68C59.9993 22.1333 60.5327 22.7333 60.9327 23.48C61.3593 24.2 61.5727 25.12 61.5727 26.24C61.5727 27.5467 61.186 28.6667 60.4127 29.6C59.666 30.5067 58.706 31.2 57.5327 31.68C56.386 32.16 55.1727 32.4 53.8927 32.4C52.3727 32.4 50.8527 32.1333 49.3327 31.6C47.8393 31.04 46.5727 30.08 45.5327 28.72ZM76.4742 10.6C78.3142 10.6 79.7409 11 80.7542 11.8C81.7676 12.5733 82.4742 13.6267 82.8742 14.96C83.3009 16.2933 83.5142 17.76 83.5142 19.36V29.96C83.5142 30.5467 83.3142 31.04 82.9142 31.44C82.5409 31.8133 82.0742 32 81.5142 32C80.9276 32 80.4476 31.8133 80.0742 31.44C79.7009 31.04 79.5142 30.5467 79.5142 29.96V19.36C79.5142 18.4267 79.3809 17.5733 79.1142 16.8C78.8742 16.0267 78.4342 15.4133 77.7942 14.96C77.1809 14.5067 76.3142 14.28 75.1942 14.28C74.1542 14.28 73.2209 14.5067 72.3942 14.96C71.5942 15.4133 70.9676 16.0267 70.5142 16.8C70.0876 17.5733 69.8742 18.4267 69.8742 19.36V29.96C69.8742 30.5467 69.6742 31.04 69.2742 31.44C68.9009 31.8133 68.4342 32 67.8742 32C67.2876 32 66.8076 31.8133 66.4342 31.44C66.0609 31.04 65.8742 30.5467 65.8742 29.96V4.44C65.8742 3.85333 66.0609 3.37333 66.4342 3C66.8076 2.6 67.2876 2.4 67.8742 2.4C68.4342 2.4 68.9009 2.6 69.2742 3C69.6742 3.37333 69.8742 3.85333 69.8742 4.44V15.36L69.1542 15.76C69.3409 15.1733 69.6476 14.5733 70.0742 13.96C70.5276 13.3467 71.0742 12.7867 71.7142 12.28C72.3809 11.7733 73.1142 11.3733 73.9142 11.08C74.7142 10.76 75.5676 10.6 76.4742 10.6ZM91.5573 4H105.397C105.957 4 106.424 4.18666 106.797 4.56C107.197 4.93333 107.397 5.4 107.397 5.96C107.397 6.52 107.197 6.97333 106.797 7.32C106.424 7.66667 105.957 7.84 105.397 7.84H93.3173L93.7173 7.16V16.12L93.3573 15.72H103.597C104.157 15.72 104.624 15.9067 104.997 16.28C105.397 16.6533 105.597 17.1333 105.597 17.72C105.597 18.28 105.397 18.7333 104.997 19.08C104.624 19.4267 104.157 19.6 103.597 19.6H93.4373L93.7173 19.24V28.48L93.4373 28.16H105.397C105.957 28.16 106.424 28.36 106.797 28.76C107.197 29.1333 107.397 29.5733 107.397 30.08C107.397 30.64 107.197 31.1067 106.797 31.48C106.424 31.8267 105.957 32 105.397 32H91.5573C90.9973 32 90.5173 31.8133 90.1173 31.44C89.7173 31.04 89.5173 30.5467 89.5173 29.96V6.04C89.5173 5.45333 89.7173 4.97333 90.1173 4.6C90.5173 4.2 90.9973 4 91.5573 4ZM131.129 3.92C131.662 3.92 132.102 4.12 132.449 4.52C132.822 4.89333 133.009 5.30667 133.009 5.76C133.009 6.18667 132.862 6.6 132.569 7L124.169 18.24L121.889 15.08L129.529 4.88C129.982 4.24 130.516 3.92 131.129 3.92ZM112.889 3.88C113.529 3.88 114.076 4.16 114.529 4.72L132.569 28.96C132.862 29.3067 133.009 29.7067 133.009 30.16C133.009 30.8 132.782 31.2933 132.329 31.64C131.876 31.9867 131.422 32.16 130.969 32.16C130.329 32.16 129.796 31.88 129.369 31.32L111.289 7.12C110.996 6.74667 110.849 6.34667 110.849 5.92C110.849 5.33333 111.062 4.85333 111.489 4.48C111.916 4.08 112.382 3.88 112.889 3.88ZM112.609 32.16C112.102 32.16 111.676 31.9867 111.329 31.64C110.982 31.2667 110.809 30.8533 110.809 30.4C110.809 29.9467 110.969 29.4933 111.289 29.04L119.769 17.56L121.969 20.8L114.249 31.24C113.822 31.8533 113.276 32.16 112.609 32.16Z" fill="white"/>
<path d="M11.6842 32C11.0442 32 10.5242 31.8133 10.1242 31.44C9.75089 31.04 9.56422 30.5467 9.56422 29.96V6H13.8442V29.96C13.8442 30.5467 13.6309 31.04 13.2042 31.44C12.8042 31.8133 12.2976 32 11.6842 32ZM2.60422 7.84C2.04422 7.84 1.56422 7.66667 1.16422 7.32C0.764219 6.94666 0.564219 6.46666 0.564219 5.88C0.564219 5.32 0.764219 4.86667 1.16422 4.52C1.56422 4.17333 2.04422 4 2.60422 4H20.8042C21.3642 4 21.8309 4.18666 22.2042 4.56C22.6042 4.90667 22.8042 5.36 22.8042 5.92C22.8042 6.50667 22.6042 6.97333 22.2042 7.32C21.8309 7.66667 21.3642 7.84 20.8042 7.84H2.60422ZM42.2452 21.48C42.2452 23.6133 41.7785 25.5067 40.8452 27.16C39.9118 28.7867 38.6452 30.0667 37.0452 31C35.4452 31.9333 33.6452 32.4 31.6452 32.4C29.6452 32.4 27.8452 31.9333 26.2452 31C24.6452 30.0667 23.3652 28.7867 22.4052 27.16C21.4718 25.5067 21.0052 23.6133 21.0052 21.48C21.0052 19.32 21.4718 17.4267 22.4052 15.8C23.3652 14.1467 24.6452 12.8533 26.2452 11.92C27.8452 10.96 29.6452 10.48 31.6452 10.48C33.6452 10.48 35.4452 10.96 37.0452 11.92C38.6452 12.8533 39.9118 14.1467 40.8452 15.8C41.7785 17.4267 42.2452 19.32 42.2452 21.48ZM38.2452 21.48C38.2452 20.0133 37.9518 18.7467 37.3652 17.68C36.7785 16.5867 35.9785 15.7333 34.9652 15.12C33.9785 14.48 32.8718 14.16 31.6452 14.16C30.4185 14.16 29.2985 14.48 28.2852 15.12C27.2718 15.7333 26.4718 16.5867 25.8852 17.68C25.2985 18.7467 25.0052 20.0133 25.0052 21.48C25.0052 22.8933 25.2985 24.1467 25.8852 25.24C26.4718 26.3333 27.2718 27.1867 28.2852 27.8C29.2985 28.4133 30.4185 28.72 31.6452 28.72C32.8718 28.72 33.9785 28.4133 34.9652 27.8C35.9785 27.1867 36.7785 26.3333 37.3652 25.24C37.9518 24.1467 38.2452 22.8933 38.2452 21.48ZM45.5327 28.72C45.2927 28.3467 45.186 27.92 45.2127 27.44C45.2393 26.9333 45.5193 26.5067 46.0527 26.16C46.426 25.92 46.8127 25.8267 47.2127 25.88C47.6393 25.9067 48.0393 26.1067 48.4127 26.48C49.1593 27.3067 49.986 27.96 50.8927 28.44C51.826 28.92 52.946 29.16 54.2527 29.16C54.786 29.1333 55.3327 29.0533 55.8927 28.92C56.4527 28.76 56.9327 28.4933 57.3327 28.12C57.7327 27.72 57.9327 27.1467 57.9327 26.4C57.9327 25.7333 57.7193 25.2 57.2927 24.8C56.866 24.4 56.306 24.08 55.6127 23.84C54.9193 23.5733 54.1727 23.3333 53.3727 23.12C52.5193 22.88 51.6527 22.6133 50.7727 22.32C49.9193 22.0267 49.146 21.6533 48.4527 21.2C47.7593 20.72 47.186 20.1067 46.7327 19.36C46.306 18.6133 46.0927 17.6933 46.0927 16.6C46.0927 15.3467 46.4393 14.2667 47.1327 13.36C47.8527 12.4533 48.7727 11.7467 49.8927 11.24C51.0393 10.7333 52.2793 10.48 53.6127 10.48C54.386 10.48 55.1993 10.5867 56.0527 10.8C56.906 10.9867 57.7327 11.2933 58.5327 11.72C59.3327 12.1467 60.026 12.7067 60.6127 13.4C60.8793 13.7467 61.026 14.16 61.0527 14.64C61.106 15.12 60.8927 15.5467 60.4127 15.92C60.0927 16.1867 59.706 16.3067 59.2527 16.28C58.7993 16.2533 58.426 16.1067 58.1327 15.84C57.626 15.2 56.9727 14.7067 56.1727 14.36C55.3727 13.9867 54.466 13.8 53.4527 13.8C52.946 13.8 52.4127 13.88 51.8527 14.04C51.3193 14.1733 50.866 14.4267 50.4927 14.8C50.1193 15.1733 49.9327 15.72 49.9327 16.44C49.9327 17.1067 50.146 17.64 50.5727 18.04C51.026 18.44 51.6127 18.7733 52.3327 19.04C53.0527 19.3067 53.8393 19.5467 54.6927 19.76C55.5193 19.9733 56.3327 20.2267 57.1327 20.52C57.9593 20.8133 58.6927 21.2 59.3327 21.68C59.9993 22.1333 60.5327 22.7333 60.9327 23.48C61.3593 24.2 61.5727 25.12 61.5727 26.24C61.5727 27.5467 61.186 28.6667 60.4127 29.6C59.666 30.5067 58.706 31.2 57.5327 31.68C56.386 32.16 55.1727 32.4 53.8927 32.4C52.3727 32.4 50.8527 32.1333 49.3327 31.6C47.8393 31.04 46.5727 30.08 45.5327 28.72ZM76.4742 10.6C78.3142 10.6 79.7409 11 80.7542 11.8C81.7676 12.5733 82.4742 13.6267 82.8742 14.96C83.3009 16.2933 83.5142 17.76 83.5142 19.36V29.96C83.5142 30.5467 83.3142 31.04 82.9142 31.44C82.5409 31.8133 82.0742 32 81.5142 32C80.9276 32 80.4476 31.8133 80.0742 31.44C79.7009 31.04 79.5142 30.5467 79.5142 29.96V19.36C79.5142 18.4267 79.3809 17.5733 79.1142 16.8C78.8742 16.0267 78.4342 15.4133 77.7942 14.96C77.1809 14.5067 76.3142 14.28 75.1942 14.28C74.1542 14.28 73.2209 14.5067 72.3942 14.96C71.5942 15.4133 70.9676 16.0267 70.5142 16.8C70.0876 17.5733 69.8742 18.4267 69.8742 19.36V29.96C69.8742 30.5467 69.6742 31.04 69.2742 31.44C68.9009 31.8133 68.4342 32 67.8742 32C67.2876 32 66.8076 31.8133 66.4342 31.44C66.0609 31.04 65.8742 30.5467 65.8742 29.96V4.44C65.8742 3.85333 66.0609 3.37333 66.4342 3C66.8076 2.6 67.2876 2.4 67.8742 2.4C68.4342 2.4 68.9009 2.6 69.2742 3C69.6742 3.37333 69.8742 3.85333 69.8742 4.44V15.36L69.1542 15.76C69.3409 15.1733 69.6476 14.5733 70.0742 13.96C70.5276 13.3467 71.0742 12.7867 71.7142 12.28C72.3809 11.7733 73.1142 11.3733 73.9142 11.08C74.7142 10.76 75.5676 10.6 76.4742 10.6ZM91.5573 4H105.397C105.957 4 106.424 4.18666 106.797 4.56C107.197 4.93333 107.397 5.4 107.397 5.96C107.397 6.52 107.197 6.97333 106.797 7.32C106.424 7.66667 105.957 7.84 105.397 7.84H93.3173L93.7173 7.16V16.12L93.3573 15.72H103.597C104.157 15.72 104.624 15.9067 104.997 16.28C105.397 16.6533 105.597 17.1333 105.597 17.72C105.597 18.28 105.397 18.7333 104.997 19.08C104.624 19.4267 104.157 19.6 103.597 19.6H93.4373L93.7173 19.24V28.48L93.4373 28.16H105.397C105.957 28.16 106.424 28.36 106.797 28.76C107.197 29.1333 107.397 29.5733 107.397 30.08C107.397 30.64 107.197 31.1067 106.797 31.48C106.424 31.8267 105.957 32 105.397 32H91.5573C90.9973 32 90.5173 31.8133 90.1173 31.44C89.7173 31.04 89.5173 30.5467 89.5173 29.96V6.04C89.5173 5.45333 89.7173 4.97333 90.1173 4.6C90.5173 4.2 90.9973 4 91.5573 4ZM131.129 3.92C131.662 3.92 132.102 4.12 132.449 4.52C132.822 4.89333 133.009 5.30667 133.009 5.76C133.009 6.18667 132.862 6.6 132.569 7L124.169 18.24L121.889 15.08L129.529 4.88C129.982 4.24 130.516 3.92 131.129 3.92ZM112.889 3.88C113.529 3.88 114.076 4.16 114.529 4.72L132.569 28.96C132.862 29.3067 133.009 29.7067 133.009 30.16C133.009 30.8 132.782 31.2933 132.329 31.64C131.876 31.9867 131.422 32.16 130.969 32.16C130.329 32.16 129.796 31.88 129.369 31.32L111.289 7.12C110.996 6.74667 110.849 6.34667 110.849 5.92C110.849 5.33333 111.062 4.85333 111.489 4.48C111.916 4.08 112.382 3.88 112.889 3.88ZM112.609 32.16C112.102 32.16 111.676 31.9867 111.329 31.64C110.982 31.2667 110.809 30.8533 110.809 30.4C110.809 29.9467 110.969 29.4933 111.289 29.04L119.769 17.56L121.969 20.8L114.249 31.24C113.822 31.8533 113.276 32.16 112.609 32.16Z" fill="white"/>
<path d="M11.6842 32C11.0442 32 10.5242 31.8133 10.1242 31.44C9.75089 31.04 9.56422 30.5467 9.56422 29.96V6H13.8442V29.96C13.8442 30.5467 13.6309 31.04 13.2042 31.44C12.8042 31.8133 12.2976 32 11.6842 32ZM2.60422 7.84C2.04422 7.84 1.56422 7.66667 1.16422 7.32C0.764219 6.94666 0.564219 6.46666 0.564219 5.88C0.564219 5.32 0.764219 4.86667 1.16422 4.52C1.56422 4.17333 2.04422 4 2.60422 4H20.8042C21.3642 4 21.8309 4.18666 22.2042 4.56C22.6042 4.90667 22.8042 5.36 22.8042 5.92C22.8042 6.50667 22.6042 6.97333 22.2042 7.32C21.8309 7.66667 21.3642 7.84 20.8042 7.84H2.60422ZM42.2452 21.48C42.2452 23.6133 41.7785 25.5067 40.8452 27.16C39.9118 28.7867 38.6452 30.0667 37.0452 31C35.4452 31.9333 33.6452 32.4 31.6452 32.4C29.6452 32.4 27.8452 31.9333 26.2452 31C24.6452 30.0667 23.3652 28.7867 22.4052 27.16C21.4718 25.5067 21.0052 23.6133 21.0052 21.48C21.0052 19.32 21.4718 17.4267 22.4052 15.8C23.3652 14.1467 24.6452 12.8533 26.2452 11.92C27.8452 10.96 29.6452 10.48 31.6452 10.48C33.6452 10.48 35.4452 10.96 37.0452 11.92C38.6452 12.8533 39.9118 14.1467 40.8452 15.8C41.7785 17.4267 42.2452 19.32 42.2452 21.48ZM38.2452 21.48C38.2452 20.0133 37.9518 18.7467 37.3652 17.68C36.7785 16.5867 35.9785 15.7333 34.9652 15.12C33.9785 14.48 32.8718 14.16 31.6452 14.16C30.4185 14.16 29.2985 14.48 28.2852 15.12C27.2718 15.7333 26.4718 16.5867 25.8852 17.68C25.2985 18.7467 25.0052 20.0133 25.0052 21.48C25.0052 22.8933 25.2985 24.1467 25.8852 25.24C26.4718 26.3333 27.2718 27.1867 28.2852 27.8C29.2985 28.4133 30.4185 28.72 31.6452 28.72C32.8718 28.72 33.9785 28.4133 34.9652 27.8C35.9785 27.1867 36.7785 26.3333 37.3652 25.24C37.9518 24.1467 38.2452 22.8933 38.2452 21.48ZM45.5327 28.72C45.2927 28.3467 45.186 27.92 45.2127 27.44C45.2393 26.9333 45.5193 26.5067 46.0527 26.16C46.426 25.92 46.8127 25.8267 47.2127 25.88C47.6393 25.9067 48.0393 26.1067 48.4127 26.48C49.1593 27.3067 49.986 27.96 50.8927 28.44C51.826 28.92 52.946 29.16 54.2527 29.16C54.786 29.1333 55.3327 29.0533 55.8927 28.92C56.4527 28.76 56.9327 28.4933 57.3327 28.12C57.7327 27.72 57.9327 27.1467 57.9327 26.4C57.9327 25.7333 57.7193 25.2 57.2927 24.8C56.866 24.4 56.306 24.08 55.6127 23.84C54.9193 23.5733 54.1727 23.3333 53.3727 23.12C52.5193 22.88 51.6527 22.6133 50.7727 22.32C49.9193 22.0267 49.146 21.6533 48.4527 21.2C47.7593 20.72 47.186 20.1067 46.7327 19.36C46.306 18.6133 46.0927 17.6933 46.0927 16.6C46.0927 15.3467 46.4393 14.2667 47.1327 13.36C47.8527 12.4533 48.7727 11.7467 49.8927 11.24C51.0393 10.7333 52.2793 10.48 53.6127 10.48C54.386 10.48 55.1993 10.5867 56.0527 10.8C56.906 10.9867 57.7327 11.2933 58.5327 11.72C59.3327 12.1467 60.026 12.7067 60.6127 13.4C60.8793 13.7467 61.026 14.16 61.0527 14.64C61.106 15.12 60.8927 15.5467 60.4127 15.92C60.0927 16.1867 59.706 16.3067 59.2527 16.28C58.7993 16.2533 58.426 16.1067 58.1327 15.84C57.626 15.2 56.9727 14.7067 56.1727 14.36C55.3727 13.9867 54.466 13.8 53.4527 13.8C52.946 13.8 52.4127 13.88 51.8527 14.04C51.3193 14.1733 50.866 14.4267 50.4927 14.8C50.1193 15.1733 49.9327 15.72 49.9327 16.44C49.9327 17.1067 50.146 17.64 50.5727 18.04C51.026 18.44 51.6127 18.7733 52.3327 19.04C53.0527 19.3067 53.8393 19.5467 54.6927 19.76C55.5193 19.9733 56.3327 20.2267 57.1327 20.52C57.9593 20.8133 58.6927 21.2 59.3327 21.68C59.9993 22.1333 60.5327 22.7333 60.9327 23.48C61.3593 24.2 61.5727 25.12 61.5727 26.24C61.5727 27.5467 61.186 28.6667 60.4127 29.6C59.666 30.5067 58.706 31.2 57.5327 31.68C56.386 32.16 55.1727 32.4 53.8927 32.4C52.3727 32.4 50.8527 32.1333 49.3327 31.6C47.8393 31.04 46.5727 30.08 45.5327 28.72ZM76.4742 10.6C78.3142 10.6 79.7409 11 80.7542 11.8C81.7676 12.5733 82.4742 13.6267 82.8742 14.96C83.3009 16.2933 83.5142 17.76 83.5142 19.36V29.96C83.5142 30.5467 83.3142 31.04 82.9142 31.44C82.5409 31.8133 82.0742 32 81.5142 32C80.9276 32 80.4476 31.8133 80.0742 31.44C79.7009 31.04 79.5142 30.5467 79.5142 29.96V19.36C79.5142 18.4267 79.3809 17.5733 79.1142 16.8C78.8742 16.0267 78.4342 15.4133 77.7942 14.96C77.1809 14.5067 76.3142 14.28 75.1942 14.28C74.1542 14.28 73.2209 14.5067 72.3942 14.96C71.5942 15.4133 70.9676 16.0267 70.5142 16.8C70.0876 17.5733 69.8742 18.4267 69.8742 19.36V29.96C69.8742 30.5467 69.6742 31.04 69.2742 31.44C68.9009 31.8133 68.4342 32 67.8742 32C67.2876 32 66.8076 31.8133 66.4342 31.44C66.0609 31.04 65.8742 30.5467 65.8742 29.96V4.44C65.8742 3.85333 66.0609 3.37333 66.4342 3C66.8076 2.6 67.2876 2.4 67.8742 2.4C68.4342 2.4 68.9009 2.6 69.2742 3C69.6742 3.37333 69.8742 3.85333 69.8742 4.44V15.36L69.1542 15.76C69.3409 15.1733 69.6476 14.5733 70.0742 13.96C70.5276 13.3467 71.0742 12.7867 71.7142 12.28C72.3809 11.7733 73.1142 11.3733 73.9142 11.08C74.7142 10.76 75.5676 10.6 76.4742 10.6ZM91.5573 4H105.397C105.957 4 106.424 4.18666 106.797 4.56C107.197 4.93333 107.397 5.4 107.397 5.96C107.397 6.52 107.197 6.97333 106.797 7.32C106.424 7.66667 105.957 7.84 105.397 7.84H93.3173L93.7173 7.16V16.12L93.3573 15.72H103.597C104.157 15.72 104.624 15.9067 104.997 16.28C105.397 16.6533 105.597 17.1333 105.597 17.72C105.597 18.28 105.397 18.7333 104.997 19.08C104.624 19.4267 104.157 19.6 103.597 19.6H93.4373L93.7173 19.24V28.48L93.4373 28.16H105.397C105.957 28.16 106.424 28.36 106.797 28.76C107.197 29.1333 107.397 29.5733 107.397 30.08C107.397 30.64 107.197 31.1067 106.797 31.48C106.424 31.8267 105.957 32 105.397 32H91.5573C90.9973 32 90.5173 31.8133 90.1173 31.44C89.7173 31.04 89.5173 30.5467 89.5173 29.96V6.04C89.5173 5.45333 89.7173 4.97333 90.1173 4.6C90.5173 4.2 90.9973 4 91.5573 4ZM131.129 3.92C131.662 3.92 132.102 4.12 132.449 4.52C132.822 4.89333 133.009 5.30667 133.009 5.76C133.009 6.18667 132.862 6.6 132.569 7L124.169 18.24L121.889 15.08L129.529 4.88C129.982 4.24 130.516 3.92 131.129 3.92ZM112.889 3.88C113.529 3.88 114.076 4.16 114.529 4.72L132.569 28.96C132.862 29.3067 133.009 29.7067 133.009 30.16C133.009 30.8 132.782 31.2933 132.329 31.64C131.876 31.9867 131.422 32.16 130.969 32.16C130.329 32.16 129.796 31.88 129.369 31.32L111.289 7.12C110.996 6.74667 110.849 6.34667 110.849 5.92C110.849 5.33333 111.062 4.85333 111.489 4.48C111.916 4.08 112.382 3.88 112.889 3.88ZM112.609 32.16C112.102 32.16 111.676 31.9867 111.329 31.64C110.982 31.2667 110.809 30.8533 110.809 30.4C110.809 29.9467 110.969 29.4933 111.289 29.04L119.769 17.56L121.969 20.8L114.249 31.24C113.822 31.8533 113.276 32.16 112.609 32.16Z" fill="white"/>
<path d="M11.6842 32C11.0442 32 10.5242 31.8133 10.1242 31.44C9.75089 31.04 9.56422 30.5467 9.56422 29.96V6H13.8442V29.96C13.8442 30.5467 13.6309 31.04 13.2042 31.44C12.8042 31.8133 12.2976 32 11.6842 32ZM2.60422 7.84C2.04422 7.84 1.56422 7.66667 1.16422 7.32C0.764219 6.94666 0.564219 6.46666 0.564219 5.88C0.564219 5.32 0.764219 4.86667 1.16422 4.52C1.56422 4.17333 2.04422 4 2.60422 4H20.8042C21.3642 4 21.8309 4.18666 22.2042 4.56C22.6042 4.90667 22.8042 5.36 22.8042 5.92C22.8042 6.50667 22.6042 6.97333 22.2042 7.32C21.8309 7.66667 21.3642 7.84 20.8042 7.84H2.60422ZM42.2452 21.48C42.2452 23.6133 41.7785 25.5067 40.8452 27.16C39.9118 28.7867 38.6452 30.0667 37.0452 31C35.4452 31.9333 33.6452 32.4 31.6452 32.4C29.6452 32.4 27.8452 31.9333 26.2452 31C24.6452 30.0667 23.3652 28.7867 22.4052 27.16C21.4718 25.5067 21.0052 23.6133 21.0052 21.48C21.0052 19.32 21.4718 17.4267 22.4052 15.8C23.3652 14.1467 24.6452 12.8533 26.2452 11.92C27.8452 10.96 29.6452 10.48 31.6452 10.48C33.6452 10.48 35.4452 10.96 37.0452 11.92C38.6452 12.8533 39.9118 14.1467 40.8452 15.8C41.7785 17.4267 42.2452 19.32 42.2452 21.48ZM38.2452 21.48C38.2452 20.0133 37.9518 18.7467 37.3652 17.68C36.7785 16.5867 35.9785 15.7333 34.9652 15.12C33.9785 14.48 32.8718 14.16 31.6452 14.16C30.4185 14.16 29.2985 14.48 28.2852 15.12C27.2718 15.7333 26.4718 16.5867 25.8852 17.68C25.2985 18.7467 25.0052 20.0133 25.0052 21.48C25.0052 22.8933 25.2985 24.1467 25.8852 25.24C26.4718 26.3333 27.2718 27.1867 28.2852 27.8C29.2985 28.4133 30.4185 28.72 31.6452 28.72C32.8718 28.72 33.9785 28.4133 34.9652 27.8C35.9785 27.1867 36.7785 26.3333 37.3652 25.24C37.9518 24.1467 38.2452 22.8933 38.2452 21.48ZM45.5327 28.72C45.2927 28.3467 45.186 27.92 45.2127 27.44C45.2393 26.9333 45.5193 26.5067 46.0527 26.16C46.426 25.92 46.8127 25.8267 47.2127 25.88C47.6393 25.9067 48.0393 26.1067 48.4127 26.48C49.1593 27.3067 49.986 27.96 50.8927 28.44C51.826 28.92 52.946 29.16 54.2527 29.16C54.786 29.1333 55.3327 29.0533 55.8927 28.92C56.4527 28.76 56.9327 28.4933 57.3327 28.12C57.7327 27.72 57.9327 27.1467 57.9327 26.4C57.9327 25.7333 57.7193 25.2 57.2927 24.8C56.866 24.4 56.306 24.08 55.6127 23.84C54.9193 23.5733 54.1727 23.3333 53.3727 23.12C52.5193 22.88 51.6527 22.6133 50.7727 22.32C49.9193 22.0267 49.146 21.6533 48.4527 21.2C47.7593 20.72 47.186 20.1067 46.7327 19.36C46.306 18.6133 46.0927 17.6933 46.0927 16.6C46.0927 15.3467 46.4393 14.2667 47.1327 13.36C47.8527 12.4533 48.7727 11.7467 49.8927 11.24C51.0393 10.7333 52.2793 10.48 53.6127 10.48C54.386 10.48 55.1993 10.5867 56.0527 10.8C56.906 10.9867 57.7327 11.2933 58.5327 11.72C59.3327 12.1467 60.026 12.7067 60.6127 13.4C60.8793 13.7467 61.026 14.16 61.0527 14.64C61.106 15.12 60.8927 15.5467 60.4127 15.92C60.0927 16.1867 59.706 16.3067 59.2527 16.28C58.7993 16.2533 58.426 16.1067 58.1327 15.84C57.626 15.2 56.9727 14.7067 56.1727 14.36C55.3727 13.9867 54.466 13.8 53.4527 13.8C52.946 13.8 52.4127 13.88 51.8527 14.04C51.3193 14.1733 50.866 14.4267 50.4927 14.8C50.1193 15.1733 49.9327 15.72 49.9327 16.44C49.9327 17.1067 50.146 17.64 50.5727 18.04C51.026 18.44 51.6127 18.7733 52.3327 19.04C53.0527 19.3067 53.8393 19.5467 54.6927 19.76C55.5193 19.9733 56.3327 20.2267 57.1327 20.52C57.9593 20.8133 58.6927 21.2 59.3327 21.68C59.9993 22.1333 60.5327 22.7333 60.9327 23.48C61.3593 24.2 61.5727 25.12 61.5727 26.24C61.5727 27.5467 61.186 28.6667 60.4127 29.6C59.666 30.5067 58.706 31.2 57.5327 31.68C56.386 32.16 55.1727 32.4 53.8927 32.4C52.3727 32.4 50.8527 32.1333 49.3327 31.6C47.8393 31.04 46.5727 30.08 45.5327 28.72ZM76.4742 10.6C78.3142 10.6 79.7409 11 80.7542 11.8C81.7676 12.5733 82.4742 13.6267 82.8742 14.96C83.3009 16.2933 83.5142 17.76 83.5142 19.36V29.96C83.5142 30.5467 83.3142 31.04 82.9142 31.44C82.5409 31.8133 82.0742 32 81.5142 32C80.9276 32 80.4476 31.8133 80.0742 31.44C79.7009 31.04 79.5142 30.5467 79.5142 29.96V19.36C79.5142 18.4267 79.3809 17.5733 79.1142 16.8C78.8742 16.0267 78.4342 15.4133 77.7942 14.96C77.1809 14.5067 76.3142 14.28 75.1942 14.28C74.1542 14.28 73.2209 14.5067 72.3942 14.96C71.5942 15.4133 70.9676 16.0267 70.5142 16.8C70.0876 17.5733 69.8742 18.4267 69.8742 19.36V29.96C69.8742 30.5467 69.6742 31.04 69.2742 31.44C68.9009 31.8133 68.4342 32 67.8742 32C67.2876 32 66.8076 31.8133 66.4342 31.44C66.0609 31.04 65.8742 30.5467 65.8742 29.96V4.44C65.8742 3.85333 66.0609 3.37333 66.4342 3C66.8076 2.6 67.2876 2.4 67.8742 2.4C68.4342 2.4 68.9009 2.6 69.2742 3C69.6742 3.37333 69.8742 3.85333 69.8742 4.44V15.36L69.1542 15.76C69.3409 15.1733 69.6476 14.5733 70.0742 13.96C70.5276 13.3467 71.0742 12.7867 71.7142 12.28C72.3809 11.7733 73.1142 11.3733 73.9142 11.08C74.7142 10.76 75.5676 10.6 76.4742 10.6ZM91.5573 4H105.397C105.957 4 106.424 4.18666 106.797 4.56C107.197 4.93333 107.397 5.4 107.397 5.96C107.397 6.52 107.197 6.97333 106.797 7.32C106.424 7.66667 105.957 7.84 105.397 7.84H93.3173L93.7173 7.16V16.12L93.3573 15.72H103.597C104.157 15.72 104.624 15.9067 104.997 16.28C105.397 16.6533 105.597 17.1333 105.597 17.72C105.597 18.28 105.397 18.7333 104.997 19.08C104.624 19.4267 104.157 19.6 103.597 19.6H93.4373L93.7173 19.24V28.48L93.4373 28.16H105.397C105.957 28.16 106.424 28.36 106.797 28.76C107.197 29.1333 107.397 29.5733 107.397 30.08C107.397 30.64 107.197 31.1067 106.797 31.48C106.424 31.8267 105.957 32 105.397 32H91.5573C90.9973 32 90.5173 31.8133 90.1173 31.44C89.7173 31.04 89.5173 30.5467 89.5173 29.96V6.04C89.5173 5.45333 89.7173 4.97333 90.1173 4.6C90.5173 4.2 90.9973 4 91.5573 4ZM131.129 3.92C131.662 3.92 132.102 4.12 132.449 4.52C132.822 4.89333 133.009 5.30667 133.009 5.76C133.009 6.18667 132.862 6.6 132.569 7L124.169 18.24L121.889 15.08L129.529 4.88C129.982 4.24 130.516 3.92 131.129 3.92ZM112.889 3.88C113.529 3.88 114.076 4.16 114.529 4.72L132.569 28.96C132.862 29.3067 133.009 29.7067 133.009 30.16C133.009 30.8 132.782 31.2933 132.329 31.64C131.876 31.9867 131.422 32.16 130.969 32.16C130.329 32.16 129.796 31.88 129.369 31.32L111.289 7.12C110.996 6.74667 110.849 6.34667 110.849 5.92C110.849 5.33333 111.062 4.85333 111.489 4.48C111.916 4.08 112.382 3.88 112.889 3.88ZM112.609 32.16C112.102 32.16 111.676 31.9867 111.329 31.64C110.982 31.2667 110.809 30.8533 110.809 30.4C110.809 29.9467 110.969 29.4933 111.289 29.04L119.769 17.56L121.969 20.8L114.249 31.24C113.822 31.8533 113.276 32.16 112.609 32.16Z" fill="white"/>
<path d="M164.04 4C165.987 4 167.707 4.37333 169.2 5.12C170.693 5.84 171.933 6.85333 172.92 8.16C173.933 9.44 174.693 10.9333 175.2 12.64C175.707 14.32 175.96 16.1067 175.96 18C175.96 20.5867 175.507 22.9467 174.6 25.08C173.693 27.1867 172.36 28.8667 170.6 30.12C168.84 31.3733 166.653 32 164.04 32H154.28C153.72 32 153.24 31.8133 152.84 31.44C152.44 31.04 152.24 30.5467 152.24 29.96V6.04C152.24 5.45333 152.44 4.97333 152.84 4.6C153.24 4.2 153.72 4 154.28 4H164.04ZM163.64 28.16C165.533 28.16 167.067 27.6933 168.24 26.76C169.413 25.8267 170.267 24.6 170.8 23.08C171.36 21.5333 171.64 19.84 171.64 18C171.64 16.64 171.48 15.36 171.16 14.16C170.867 12.9333 170.387 11.8533 169.72 10.92C169.08 9.96 168.253 9.21333 167.24 8.68C166.253 8.12 165.053 7.84 163.64 7.84H156.08L156.44 7.48V28.56L156.2 28.16H163.64ZM190.545 32.4C188.332 32.4 186.412 31.9467 184.785 31.04C183.159 30.1067 181.892 28.84 180.985 27.24C180.105 25.6133 179.665 23.76 179.665 21.68C179.665 19.3333 180.132 17.3333 181.065 15.68C182.025 14 183.265 12.72 184.785 11.84C186.305 10.9333 187.919 10.48 189.625 10.48C190.932 10.48 192.172 10.7467 193.345 11.28C194.519 11.7867 195.559 12.5067 196.465 13.44C197.399 14.3467 198.132 15.4267 198.665 16.68C199.199 17.9067 199.479 19.2533 199.505 20.72C199.479 21.2533 199.265 21.6933 198.865 22.04C198.465 22.3867 197.999 22.56 197.465 22.56H181.905L180.945 19.16H195.985L195.225 19.88V18.88C195.172 17.9467 194.865 17.1333 194.305 16.44C193.745 15.72 193.052 15.1733 192.225 14.8C191.399 14.4 190.532 14.2 189.625 14.2C188.825 14.2 188.052 14.3333 187.305 14.6C186.585 14.84 185.932 15.24 185.345 15.8C184.785 16.36 184.332 17.1067 183.985 18.04C183.665 18.9467 183.505 20.08 183.505 21.44C183.505 22.9067 183.812 24.1867 184.425 25.28C185.039 26.3733 185.865 27.2267 186.905 27.84C187.945 28.4267 189.092 28.72 190.345 28.72C191.332 28.72 192.145 28.6267 192.785 28.44C193.425 28.2267 193.959 27.9733 194.385 27.68C194.812 27.3867 195.185 27.1067 195.505 26.84C195.905 26.6 196.305 26.48 196.705 26.48C197.185 26.48 197.585 26.6533 197.905 27C198.225 27.32 198.385 27.7067 198.385 28.16C198.385 28.7467 198.092 29.28 197.505 29.76C196.785 30.4533 195.785 31.0667 194.505 31.6C193.252 32.1333 191.932 32.4 190.545 32.4ZM204.311 10.76C204.711 10.76 205.085 10.8667 205.431 11.08C205.805 11.2933 206.071 11.6133 206.231 12.04L212.511 26.56L211.751 26.92L218.111 12.08C218.485 11.2 219.085 10.7733 219.911 10.8C220.445 10.8 220.885 10.9733 221.231 11.32C221.605 11.64 221.791 12.0667 221.791 12.6C221.791 12.76 221.765 12.9333 221.711 13.12C221.658 13.28 221.591 13.44 221.511 13.6L213.911 30.72C213.565 31.52 212.991 31.9467 212.191 32C211.791 32.0533 211.391 31.9733 210.991 31.76C210.618 31.52 210.325 31.1733 210.111 30.72L202.551 13.6C202.498 13.4933 202.445 13.36 202.391 13.2C202.338 13.0133 202.311 12.8 202.311 12.56C202.311 12.16 202.485 11.76 202.831 11.36C203.205 10.96 203.698 10.76 204.311 10.76Z" fill="#FCCD12"/>
<path d="M142 29V29.0305" stroke="#FCCD12" stroke-width="6" stroke-linecap="round"/>
</svg>
